<svg width="140" height="25" viewBox="0 0 140 25" fill="none" xmlns="http://www.w3.org/2000/svg">
<g id="computer-research-institute-of-montreal-crim-vector-logo 1" clip-path="url(#clip0_399_1514)">
<path id="Vector" d="M32.1442 19.3477H11.4448V24.8911H32.1442V19.3477Z" fill="white"/>
<g id="Group">
<path id="Vector_2" d="M32.7669 -0.0654297C32.7669 5.76066 27.8283 10.4998 21.7516 10.4998C15.6749 10.4998 10.7362 5.7824 10.7362 -0.0654297H4.46631C4.46631 9.10848 12.2178 16.5215 21.7731 16.5215C31.3283 16.5215 39.0798 9.08674 39.0798 -0.0654297H32.7669Z" fill="white"/>
<path id="Vector_3" d="M62.7639 8.58677C61.5185 6.97807 59.4786 6.10851 57.3958 6.10851C53.6596 6.10851 51.1258 8.84764 51.1258 12.3476C51.1258 15.9129 53.6811 18.4781 57.4817 18.4781C59.4786 18.4781 61.4755 17.565 62.7639 16.0868V23.1085C60.724 23.7172 59.2639 24.152 57.3743 24.152C54.1105 24.152 50.9755 22.9563 48.5492 20.8259C45.9725 18.5868 44.77 15.652 44.77 12.3042C44.77 9.21721 45.9939 6.26068 48.2271 4.04329C50.5461 1.78242 53.8743 0.391113 57.1811 0.391113C59.1565 0.391113 60.9602 0.804159 62.7639 1.52155V8.58677Z" fill="white"/>
<path id="Vector_4" d="M81.1656 14.3258C84.4938 13.7606 86.319 11.065 86.319 7.95627C86.319 3.15192 82.7975 1.02148 78.138 1.02148H69.0122V23.565H75.1104V14.891H75.1748L80.9294 23.565H88.5521L81.1656 14.3258ZM75.1104 5.49974H75.6901C77.6871 5.49974 79.9417 5.86931 79.9417 8.30409C79.9417 10.7606 77.6871 11.1084 75.6901 11.1084H75.1104V5.49974Z" fill="white"/>
</g>
<path id="Vector_5" d="M98.7944 1.02148H92.6748V23.565H98.7944V1.02148Z" fill="white"/>
<path id="Vector_6" d="M107.813 1.02148H113.825L118.614 13.065L123.66 1.02148H129.736L133.301 23.565H127.181L125.463 10.5867H125.399L119.752 23.565H117.325L111.936 10.5867H111.871L109.896 23.565H103.819L107.813 1.02148Z" fill="white"/>
</g>
<defs>
<clipPath id="clip0_399_1514">
<rect width="140" height="25" fill="white"/>
</clipPath>
</defs>
</svg>
