<svg version="1.1" id="Layer_1" xmlns="http://www.w3.org/2000/svg" xmlns:xlink="http://www.w3.org/1999/xlink" x="0px" y="0px" viewBox="0 0 180 72" style="enable-background:new 0 0 180 72;" xml:space="preserve">
    <title>Concordia University logo</title>
    <style type="text/css">
        .st0{fill:#ffffff;}
    </style>
    <g>
        <g>
            <path class="st0" d="M52.75,38.06c-1.37,0.96-3.01,1.44-5,1.46c-2.28,0.06-4.34-0.69-5.78-2.12c-1.33-1.32-2.02-3.08-1.99-5.07
                c0.02-2.08,0.81-3.98,2.22-5.35c1.39-1.35,3.32-2.07,5.43-2.03c1.58,0.02,2.57,0.29,3.93,1.06l0.66,0.38v-2.79l-0.28-0.11
                c-1.53-0.64-2.58-0.77-4.34-0.79c-3.05-0.02-5.81,1.04-7.77,2.99c-1.76,1.75-2.72,4.12-2.71,6.66c0.01,2.63,1.03,5.04,2.87,6.79
                c1.99,1.89,4.76,2.86,7.81,2.73c0,0,0.24-0.01,0.24-0.01c1.57-0.04,2.61-0.07,4.17-0.64c0,0,0.19-0.07,0.19-0.07l1.58-3.92
                L52.75,38.06z"></path>
            <path class="st0" d="M67.96,30.96c-1.2-1.25-2.81-1.95-4.55-1.99l0,0c-1.71-0.03-3.39,0.65-4.62,1.86
                c-1.22,1.21-1.89,2.79-1.89,4.47c0,3.46,2.83,6.31,6.3,6.36c1.73,0.03,3.37-0.62,4.6-1.82c1.21-1.17,1.88-2.73,1.91-4.39
                C69.75,33.78,69.13,32.19,67.96,30.96z M63.31,39.57c-2.07,0-3.72-1.83-3.74-4.17c-0.01-1.25,0.47-2.49,1.3-3.3
                c0.68-0.67,1.53-1.01,2.47-0.98c2.06,0.1,3.74,1.99,3.74,4.21l0,0.13C67.03,37.72,65.34,39.57,63.31,39.57z"></path>
            <path class="st0" d="M99.87,38.82c-0.71,0.51-2.02,0.87-3.34,0.91c-1.16,0.02-2.25-0.42-3.07-1.23c-0.83-0.83-1.27-1.94-1.25-3.14
                c0-2.42,1.81-4.28,4.22-4.32c1.06-0.02,2.2,0.32,2.91,0.86l0.71,0.54v-2.78l-0.28-0.11c-1.21-0.49-2.07-0.51-3.25-0.53
                c0,0-0.11,0-0.11,0c-1.96-0.05-3.76,0.63-5.06,1.91c-1.16,1.15-1.79,2.7-1.79,4.37c0,0.05,0,0.09,0,0.14
                c0.03,1.71,0.7,3.28,1.89,4.42c1.3,1.23,3.11,1.86,5.1,1.79l0.39-0.01c1.08-0.04,1.94-0.06,3.08-0.52c0,0,0.09-0.04,0.09-0.04
                l0.14-0.05l0.49-2.83L99.87,38.82z"></path>
            <path class="st0" d="M115.71,30.97c-1.2-1.26-2.81-1.97-4.54-2c-1.71-0.03-3.39,0.65-4.62,1.86c-1.22,1.2-1.89,2.79-1.89,4.47
                c0,3.46,2.83,6.31,6.31,6.36c1.73,0.03,3.37-0.62,4.6-1.82c1.2-1.17,1.88-2.73,1.9-4.39c0-0.05,0-0.09,0-0.14
                C117.47,33.7,116.85,32.16,115.71,30.97z M111.07,39.57c-2.08,0-3.72-1.83-3.74-4.17c-0.02-1.25,0.47-2.49,1.29-3.3
                c0.68-0.67,1.54-1.01,2.47-0.98c2.1,0.1,3.74,1.95,3.74,4.21l0,0.14C114.78,37.72,113.1,39.57,111.07,39.57z"></path>
            <path class="st0" d="M172.98,41.48l-0.35-0.63c-0.14-0.27-0.2-0.43-0.26-0.71c-0.08-0.28-0.11-0.45-0.11-0.76v-6.2
                c0-2.77-1.56-4.12-4.9-4.24h0c-1.24,0-2.45,0.06-3.69,0.82l-0.21,0.13v2.57l0.73-0.64c0.64-0.55,1.65-0.82,3.11-0.82
                c1.37,0,2.41,0.69,2.41,1.6c0,0.8-0.41,1-1.34,1.15c-0.01,0-0.21,0.04-2.38,0.41c-2.38,0.37-3.43,1.43-3.51,3.56
                c0,0.08,0,0.15,0,0.22c0,0.96,0.33,1.81,0.97,2.47c0.8,0.83,2.02,1.3,3.36,1.29c0.9-0.02,1.94-0.16,2.95-0.81
                c0,0.21,0,0.68,0,0.68L172.98,41.48z M169.81,35.47c0,0.49,0,2.16,0,2.16c0,1.29-1.39,2.08-2.72,2.1c-0.66,0.01-1.3-0.25-1.7-0.68
                c-0.3-0.32-0.45-0.69-0.45-1.09l0.01-0.14c0.05-0.88,0.69-1.52,1.7-1.7c0.01,0,2.17-0.4,2.17-0.4
                C168.83,35.72,169.42,35.57,169.81,35.47z"></path>
            <path class="st0" d="M82.38,41.06l-0.61,0.77h4.32l-0.56-0.72c-0.14-0.19-0.19-0.27-0.22-0.43c-0.12-0.41-0.13-0.61-0.13-0.96
                V33.8c0-1.22-0.5-2.37-1.41-3.23c-0.98-0.93-2.34-1.44-3.74-1.37c-1.24,0.04-2.17,0.36-3.01,0.99c0-0.15,0.01-0.59,0.01-0.59
                l-0.26,0h-2.82l0.4,1.15c0,0,0.01-0.02,0.01-0.02c0.01,0.05,0.02,0.11,0.03,0.16l0.08,0.43v9.08c0,0.14-0.02,0.22-0.06,0.32
                c-0.01,0.02-0.17,0.37-0.18,0.37c0,0-0.22,0.33-0.22,0.33l-0.25,0.39h3.96l-0.56-1.17c-0.11-0.35-0.13-0.58-0.13-1.04v-5.72
                c0-1.52,1.06-2.61,2.58-2.65c0.89-0.02,1.8,0.3,2.37,0.86c0.39,0.38,0.6,0.85,0.6,1.37v6.2c0,0.01,0.01,0.36,0.01,0.36
                c0-0.01-0.01,0.63-0.01,0.63C82.59,40.78,82.54,40.85,82.38,41.06z"></path>
            <path class="st0" d="M129.08,28.81c-0.91-0.16-1.68-0.04-2.43,0.38c-0.32,0.19-0.57,0.38-0.79,0.58c0-0.08,0-0.47,0-0.47h-3.59
                l0.49,0.6c0.21,0.25,0.31,0.4,0.4,0.65c0.1,0.24,0.12,0.42,0.12,0.68v8.13c0,0.01,0,0.19,0,0.19c0,0.31,0,0.52-0.08,0.8
                c-0.03,0.14-0.08,0.21-0.17,0.35c-0.01,0.02-0.52,0.84-0.52,0.84l0.8-0.01h3.54l-0.44-0.68c-0.19-0.29-0.27-0.47-0.35-0.78
                c-0.12-0.41-0.16-0.62-0.16-1.05v-5.06c0-1.12,0.5-2.16,1.25-2.58c0.57-0.32,1.04-0.36,1.69-0.15c0,0,0.58,0.18,0.58,0.18v-2.53
                L129.08,28.81z"></path>
            <path class="st0" d="M155.74,24.36h-2.93v3.03h2.93V24.36z M152.97,40.83l-0.53,0.74h3.98l-0.46-0.8c0,0-0.15-0.33-0.15-0.33
                c-0.05-0.16-0.05-0.24-0.05-0.5V29.3h-3.47l0.53,0.52c0.12,0.12,0.19,0.22,0.27,0.39c0.05,0.13,0.06,0.25,0.06,0.42
                c0,0.02,0,0.23,0,0.23v9.12c0,0,0,0.18,0,0.18l-0.03,0.41C153.11,40.64,153.07,40.7,152.97,40.83z"></path>
            <path class="st0" d="M146.1,41.54l-0.58-0.86c-0.11-0.16-0.15-0.22-0.17-0.34c-0.13-0.94-0.13-1.48-0.13-2.47V22.98h-3.53
                l0.61,0.72c0,0,0.14,0.2,0.17,0.24c0,0.01,0,0.03,0,0.03l0,0l0.07,0.33c0,0-0.01,4.05-0.02,5.47c-0.95-0.67-1.92-0.96-3.12-0.9
                c-3.52,0.13-5.59,2.44-5.65,6.33c-0.02,1.98,0.72,3.89,1.97,5.09c1.06,1.02,2.43,1.52,3.95,1.45c1.13-0.04,1.99-0.31,2.86-0.86
                c0,0.2,0,0.66,0,0.66H146.1z M142.61,33.9v2.71c0,0.95-0.29,1.72-0.84,2.24c-0.53,0.5-1.28,0.74-2.16,0.69
                c-0.87-0.04-1.64-0.43-2.23-1.11c-0.79-0.93-1.18-2.27-1.04-3.6c0.19-1.65,0.91-3.64,3.29-3.76c0.84-0.04,1.61,0.24,2.16,0.77
                C142.33,32.36,142.61,33.07,142.61,33.9z"></path>
        </g>
        <g>
            <g>
                <path class="st0" d="M59.65,15.59v2.34c0,1.36-0.93,1.83-2.06,1.83c-1.19,0-2.06-0.55-2.06-1.83v-2.34h1.03v2.37
                    c0,0.59,0.43,0.95,1.02,0.95c0.54,0,1.04-0.29,1.04-1.02v-2.29H59.65z"></path>
                <path class="st0" d="M69.59,19.71h-0.86l-2.28-2.64v2.64h-1.03v-4.11h0.94l2.2,2.52v-2.52h1.03V19.71z"></path>
                <path class="st0" d="M76.46,19.71h-1.03v-4.11h1.03V19.71z"></path>
                <path class="st0" d="M84.28,19.76h-0.45l-1.99-4.17h1.12l1.08,2.35l1.03-2.35h1.1L84.28,19.76z"></path>
                <path class="st0" d="M94.57,19.71h-3.04v-4.11h2.99v0.75h-1.97v0.86h1.88v0.75h-1.88v0.99h2.01V19.71z"></path>
                <path class="st0" d="M102.08,15.59c0.84,0,1.35,0.57,1.35,1.18c0,0.45-0.24,0.79-0.71,1.01c0.42,0.21,0.55,0.71,1.13,1.92h-1.13
                    c-0.44-0.88-0.6-1.67-1.16-1.67h-0.3v1.67h-1.03v-4.11H102.08z M101.27,17.28h0.54c0.28,0,0.56-0.12,0.56-0.47
                    c0-0.31-0.2-0.46-0.58-0.46h-0.52V17.28z"></path>
                <path class="st0" d="M111.98,16.66c-0.6-0.27-0.95-0.37-1.3-0.37c-0.37,0-0.6,0.13-0.6,0.34c0,0.62,2.09,0.45,2.09,1.88
                    c0,0.79-0.66,1.25-1.58,1.25c-0.72,0-1.07-0.19-1.48-0.4v-0.89c0.59,0.39,0.95,0.53,1.4,0.53c0.39,0,0.6-0.14,0.6-0.38
                    c0-0.68-2.09-0.43-2.09-1.91c0-0.71,0.62-1.18,1.57-1.18c0.46,0,0.87,0.1,1.39,0.32V16.66z"></path>
                <path class="st0" d="M118.81,19.71h-1.03v-4.11h1.03V19.71z"></path>
                <path class="st0" d="M128.36,16.35h-1.49v3.36h-1.03v-3.36h-1.49v-0.75h4V16.35z"></path>
                <path class="st0" d="M136.91,19.71h-3.04v-4.11h2.99v0.75h-1.97v0.86h1.88v0.75h-1.88v0.99h2.01V19.71z M135.29,15.19h-0.45
                    l0.45-0.88h1L135.29,15.19z"></path>
            </g>
        </g>
        <g>
            <g>
                <path class="st0" d="M100.39,50.21v2.34c0,1.36-0.93,1.83-2.06,1.83c-1.2,0-2.06-0.55-2.06-1.83v-2.34h1.03v2.37
                    c0,0.59,0.43,0.95,1.02,0.95c0.54,0,1.05-0.29,1.05-1.02v-2.29H100.39z"></path>
                <path class="st0" d="M110.33,54.32h-0.86l-2.27-2.64v2.64h-1.03v-4.12h0.94l2.2,2.52v-2.52h1.03V54.32z"></path>
                <path class="st0" d="M117.21,54.32h-1.03v-4.12h1.03V54.32z"></path>
                <path class="st0" d="M125.02,54.38h-0.45l-1.99-4.17h1.12l1.09,2.35l1.03-2.35h1.1L125.02,54.38z"></path>
                <path class="st0" d="M135.31,54.32h-3.04v-4.12h2.99v0.76h-1.97v0.87h1.88v0.75h-1.88v0.99h2.01V54.32z"></path>
                <path class="st0" d="M142.83,50.21c0.84,0,1.35,0.57,1.35,1.18c0,0.46-0.24,0.79-0.71,1.01c0.42,0.21,0.55,0.72,1.13,1.93h-1.13
                    c-0.44-0.88-0.6-1.67-1.16-1.67h-0.29v1.67h-1.03v-4.12H142.83z M142.01,51.9h0.54c0.28,0,0.56-0.12,0.56-0.47
                    c0-0.31-0.2-0.47-0.59-0.47h-0.52V51.9z"></path>
                <path class="st0" d="M152.72,51.28c-0.6-0.27-0.95-0.37-1.3-0.37c-0.37,0-0.6,0.13-0.6,0.34c0,0.62,2.09,0.45,2.09,1.88
                    c0,0.79-0.66,1.25-1.58,1.25c-0.72,0-1.08-0.19-1.49-0.4v-0.89c0.59,0.39,0.95,0.53,1.41,0.53c0.39,0,0.6-0.14,0.6-0.38
                    c0-0.67-2.09-0.43-2.09-1.9c0-0.71,0.62-1.18,1.57-1.18c0.46,0,0.87,0.1,1.39,0.32V51.28z"></path>
                <path class="st0" d="M159.55,54.32h-1.03v-4.12h1.03V54.32z"></path>
                <path class="st0" d="M169.1,50.96h-1.49v3.36h-1.03v-3.36h-1.49v-0.76h4.01V50.96z"></path>
                <path class="st0" d="M175.78,52.4l-1.62-2.19h1.24l0.89,1.29l0.9-1.29h1.24l-1.62,2.19v1.93h-1.03V52.4z"></path>
            </g>
        </g>
    </g>
    <g>
        <path class="st0" d="M1.18,19.61l4.42,7.42c-0.29-1.32-0.84-3.88-0.84-3.88c0.61,0.47,7.25,2.79,8.62,3.21l0.01,0.01
            c-0.9-1.45-2.31-2.82-3.63-4.18c0.94,0.96,2.62,1.91,3.95,2.75c0.5,0.31,1.01,0.63,1.56,0.93c-0.06-1.53-0.8-3.08-1.36-4.54
            c0.43,1.13,1.64,2.35,2.57,3.4c0.26,0.29,0.54,0.59,0.85,0.88c0.75-1.48,1.02-3.08,1.04-4.57c-0.02,1.39,0.27,3.12,1.04,4.56
            c0.38-0.36,0.71-0.73,1.03-1.1c0.84-0.99,1.98-2.12,2.38-3.18c-0.58,1.51-1.24,3.04-1.34,4.58c2.15-1.09,3.84-2.51,5.49-3.71
            c-1.34,0.98-2.25,2.31-3.1,3.42c-0.19,0.25-0.38,0.5-0.54,0.76l0.04-0.01c1.36-0.43,7.9-2.38,7.9-2.38l-10.41,5.07l10.34-4.88
            l-0.56,3.03l0.16,0.37l4.8-7.96H1.18z"></path>
        <path class="st0" d="M18.13,12.46C7.99,11.74,2.35,13.52,1.31,13.72v2.85C4.27,15.9,9.51,15,16.97,14.75c0,0,0,0,0,0l0.02,0
            c0,0-0.01,0-0.01,0c10.23-0.2,16.51,1,18.28,1.44c0.01-0.04,0,0.04,0,0C35.25,16.19,29.37,13.45,18.13,12.46z"></path>
        <path class="st0" d="M31.34,40.32c-4.36,5.28-10.37,9.07-12.81,10.16c0,0,0,0,0,0l0,0c0,0,0,0,0,0C14.83,48.79,6,42.71,2.02,30.92
            c-0.09-0.33-0.18-0.66-0.27-1c0.06,0.44,0.12,0.87,0.18,1.3L1.93,31.2c0.15,0.75,0.3,1.49,0.48,2.22
            c3.7,12.62,12.7,19.18,16.1,20.98C21.13,53.01,27.06,47.93,31.34,40.32z"></path>
        <path class="st0" d="M5.35,23.93l1.88,11.26c0,0,4.46,6.7,10.81,10.28l0.01-14.92L5.35,23.93z"></path>
        <path class="st0" d="M19.03,30.15v15.31c0.13-0.07,0.27-0.15,0.4-0.23c0.11-0.07,0.22-0.13,0.33-0.19V29.98L19.03,30.15z"></path>
        <path class="st0" d="M32.04,23.37c0,0-10.42,5.42-13.58,5.7c-3.53-0.35-13.11-5.14-13.11-5.14c6.18,5.15,12.93,6.74,13.21,6.82
            l0-0.01c0,0,5.1-1,12.1-5.99c-0.07,1.08-0.39,4.3-0.97,7.93L32.04,23.37C32.07,23.34,32.01,23.39,32.04,23.37z"></path>
    </g>
</svg>