<svg width="168" height="46" viewBox="0 0 168 46" fill="none" xmlns="http://www.w3.org/2000/svg">
<g id="economie-science-et-innovation-quebec-seeklogo 1" clip-path="url(#clip0_399_1692)">
<g id="Group">
<path id="Vector" d="M66.9939 39.1839V29.5469H66.9166C66.5816 29.8536 65.2932 29.8792 64.7521 29.8792H63.8245V29.9559C64.9067 30.6205 64.7521 31.5919 64.7521 32.8189V36.9088C64.7521 38.9538 62.7423 40.3853 61.0932 40.3853C58.9546 40.3853 58.0527 38.8771 58.0527 36.4487V29.5724H57.9754C57.6405 29.8792 56.3521 29.9047 55.811 29.9047H54.8834V29.9814C55.9656 30.6461 55.811 31.6174 55.811 32.8444V36.9088C55.811 40.6409 57.4343 42.4047 60.346 42.4047C62.0724 42.4047 63.8503 41.7912 64.7264 40.3342V42.098H67.8957V42.0213C66.8393 41.3822 66.9939 40.4109 66.9939 39.1839Z" fill="white"/>
<path id="Vector_2" d="M71.9154 34.046C72.2246 32.3844 73.4356 31.3364 75.0847 31.3364C76.8626 31.3364 77.9964 32.2055 78.254 34.046H71.9154ZM80.8565 35.5797C80.9595 32.1799 78.6663 29.5981 75.3166 29.5981C71.6319 29.5981 69.1583 32.2566 69.1583 35.9121C69.1583 39.6186 72.0442 42.4305 76.2442 42.4305C77.4037 42.4305 78.589 42.2515 79.6454 41.7658L80.8823 39.2863H80.805C79.6712 40.2321 78.2283 40.6922 76.7596 40.6922C73.9767 40.6922 71.8896 38.8006 71.8381 35.5542H80.8565V35.5797Z" fill="white"/>
<path id="Vector_3" d="M82.8148 23.9489C83.4074 23.9489 84.6185 23.9233 84.9792 23.5654H85.0565V40.2577C85.7265 40.4366 86.3964 40.5644 87.0921 40.5644C89.7976 40.5644 91.3436 38.6984 91.3436 36.091C91.3436 33.5348 90.1326 31.5665 87.659 31.5665C86.886 31.5665 86.2676 31.771 85.5976 32.1544L86.9117 29.9049C87.4786 29.7004 88.0712 29.6237 88.6381 29.6237C91.4209 29.6237 93.8173 32.0266 93.8173 35.6309C93.8173 39.772 91.0087 42.4305 86.551 42.4305C84.8762 42.4305 83.2786 42.1493 82.0676 41.9448V41.8681C82.8921 41.4847 82.8148 40.6155 82.8148 39.7464V27.6043C82.8148 26.3773 82.9694 24.6902 81.913 24.0256V23.9489H82.8148Z" fill="white"/>
<path id="Vector_4" d="M98.1976 34.046C98.5068 32.3844 99.7178 31.3364 101.367 31.3364C103.145 31.3364 104.279 32.2055 104.536 34.046H98.1976ZM107.164 35.5797C107.268 32.1799 104.974 29.5981 101.625 29.5981C97.9657 29.5981 95.4663 32.2566 95.4663 35.9121C95.4663 39.6186 98.3522 42.4305 102.552 42.4305C103.712 42.4305 104.897 42.2515 105.953 41.7658L107.19 39.2863H107.113C105.979 40.2321 104.536 40.6922 103.068 40.6922C100.285 40.6922 98.1976 38.8006 98.1461 35.5542H107.164V35.5797Z" fill="white"/>
<path id="Vector_5" d="M118.193 32.6399H118.115C117.394 31.7708 116.209 31.3362 115.101 31.3362C112.704 31.3362 110.978 33.1256 110.978 35.6563C110.978 38.6982 113.374 40.7176 116.106 40.7176C117.368 40.7176 118.734 40.1808 119.713 39.4139H119.79L118.502 41.919C117.471 42.328 116.337 42.4303 115.255 42.4303C111.467 42.4303 108.479 39.7718 108.479 36.3464C108.479 31.7963 111.802 29.6235 115.513 29.6235C116.415 29.6235 117.317 29.7258 118.167 29.9303V32.6399H118.193Z" fill="white"/>
<path id="Vector_6" fill-rule="evenodd" clip-rule="evenodd" d="M77.7902 27.4256V24.7671C76.1669 25.4828 74.6724 26.8376 73.6675 28.1413V29.1638C76.0638 27.579 77.7902 27.5023 77.7902 27.4256Z" fill="white"/>
<path id="Vector_7" d="M44.7313 40.6154C40.9951 40.6154 38.4185 36.4487 38.4185 32.8956C38.4185 32.87 38.4185 32.5377 38.4185 32.4866C38.47 29.0612 40.7117 25.8404 44.6025 25.8404C48.6994 25.8404 50.8381 29.7003 50.8638 33.3557V33.7391C50.8896 37.6502 48.4418 40.6154 44.7313 40.6154ZM57.5117 44.6543C54.7546 45.0888 52.1264 44.2453 49.3178 41.05C52.0234 39.6952 53.6982 36.3209 53.6982 33.2023C53.6982 33.1768 53.6982 32.8444 53.6982 32.8189C53.6467 27.4763 49.6013 23.9487 44.7571 23.9487C39.9129 23.9487 35.6356 27.6297 35.6099 33.0234V33.3813C35.6099 38.6215 39.5264 42.5326 44.3448 42.5326C45.0405 42.5326 45.7105 42.4303 46.3804 42.277C49.524 45.2166 52.3326 46.4436 54.7546 46.1624C55.9142 46.0346 57.1252 45.5745 57.8467 44.6287L57.5117 44.6543Z" fill="white"/>
<path id="Vector_8" d="M11.8786 2.04197L11.5951 3.37121H8.42581L8.1166 4.8027H11.1056L10.8221 6.10639H7.83317L7.44666 7.87019H10.7448L10.4614 9.225H5.23071L6.77673 2.04197H11.8786ZM9.14728 -0.20752H11.0798V0.0225403L9.35341 1.2751H8.1166V1.14729L9.14728 -0.20752Z" fill="white"/>
<path id="Vector_9" d="M16.5424 5.39087C16.1559 5.21194 15.7694 5.10969 15.3829 5.10969C14.378 5.10969 13.7338 5.72319 13.7338 6.64343C13.7338 7.43587 14.2749 7.94711 15.1252 7.94711C15.4602 7.94711 15.8209 7.87043 16.1816 7.69149L15.9497 9.09742C15.3829 9.2508 14.8933 9.32748 14.4295 9.32748C12.7804 9.32748 11.7755 8.33055 11.7755 6.84793C11.7755 5.05856 13.0896 3.75488 15.1767 3.75488C15.7694 3.75488 16.3878 3.85713 16.9804 4.11275L16.5424 5.39087Z" fill="white"/>
<path id="Vector_10" d="M23.2676 6.26C23.2676 8.07492 21.9277 9.3786 19.789 9.3786C18.0627 9.3786 17.032 8.43279 17.032 6.95018C17.032 5.05856 18.3203 3.75488 20.4847 3.75488C22.2111 3.75488 23.2676 4.70069 23.2676 6.26ZM20.3817 4.98188C19.6344 4.98188 18.9387 5.79988 18.9387 6.92462C18.9387 7.64037 19.3768 8.12605 19.9694 8.12605C20.7166 8.12605 21.3866 7.30805 21.3866 6.1833C21.3608 5.442 20.9743 4.98188 20.3817 4.98188Z" fill="white"/>
<path id="Vector_11" d="M29.4516 9.22523H27.5964L28.1632 6.56674C28.2148 6.36224 28.2148 6.18331 28.2148 6.02993C28.2148 5.51868 27.9571 5.2375 27.5448 5.2375C26.7976 5.2375 26.308 5.82543 26.0504 6.97574L25.5608 9.22523H23.7056L24.8651 3.85713H26.5399L26.3338 4.80294C26.9264 4.11275 27.6221 3.75488 28.3694 3.75488C29.4773 3.75488 30.1215 4.41951 30.1215 5.62094C30.1215 5.95325 30.07 6.43893 29.9154 7.10355L29.4516 9.22523Z" fill="white"/>
<path id="Vector_12" d="M37.2331 6.26C37.2331 8.07492 35.8933 9.3786 33.7546 9.3786C32.0282 9.3786 30.9976 8.43279 30.9976 6.95018C30.9976 5.05856 32.2859 3.75488 34.4503 3.75488C36.1767 3.75488 37.2331 4.70069 37.2331 6.26ZM34.3215 4.98188C33.5742 4.98188 32.8785 5.79988 32.8785 6.92462C32.8785 7.64037 33.3166 8.12605 33.9092 8.12605C34.6565 8.12605 35.3264 7.30805 35.3264 6.1833C35.3264 5.442 34.9141 4.98188 34.3215 4.98188Z" fill="white"/>
<path id="Vector_13" d="M46.3288 9.22489H44.5509L45.1178 6.5664C45.1693 6.28521 45.2209 6.08071 45.2209 5.90178C45.2209 5.51834 44.989 5.26272 44.654 5.26272C44.3706 5.26272 44.1129 5.39053 43.9325 5.62059C43.6233 6.00403 43.5718 6.48971 43.4687 6.9754L42.9791 9.22489H41.0724L41.6393 6.5664C41.6908 6.28521 41.7166 6.05515 41.7166 5.85065C41.7166 5.49278 41.5104 5.28828 41.1497 5.28828C40.5828 5.28828 40.2478 5.72284 40.0675 6.59196L39.5006 9.25045H37.6196L38.7791 3.88235H40.3767L40.1705 4.85372C40.7632 4.13798 41.3301 3.80566 42.0515 3.80566C42.8245 3.80566 43.3141 4.16354 43.5202 4.85372C44.1129 4.13798 44.654 3.80566 45.4528 3.80566C46.4577 3.80566 47.1018 4.44472 47.1018 5.49278C47.1018 5.82509 47.0503 6.05515 47.0245 6.20853L46.3288 9.22489Z" fill="white"/>
<path id="Vector_14" d="M50.8381 3.88248L49.6786 9.22502H47.8491L49.0086 3.88248H50.8381ZM51.2246 2.04199L51.0442 2.9878H49.2148L49.3951 2.04199H51.2246Z" fill="white"/>
<path id="Vector_15" d="M53.054 7.02641C53.1313 7.81884 53.5693 8.17671 54.4196 8.17671C54.9865 8.17671 55.6307 8.0489 56.2491 7.76771L56.043 9.0714C55.3988 9.2759 54.7288 9.37814 54.0589 9.37814C52.3583 9.37814 51.3792 8.40677 51.3792 6.87303C51.3792 6.00391 51.7657 5.10923 52.3325 4.52129C52.8994 3.98448 53.6982 3.67773 54.7288 3.67773C56.2233 3.67773 57.0479 4.52129 57.0479 5.97835C57.0479 6.2851 56.9963 6.61741 56.919 7.00084H53.054V7.02641ZM55.5019 5.77385C55.5019 5.18591 55.1411 4.80248 54.5742 4.80248C54.0074 4.80248 53.5178 5.23704 53.3117 6.00391H55.5019C55.5019 5.92722 55.5019 5.85053 55.5019 5.77385Z" fill="white"/>
<path id="Vector_16" d="M60.0111 7.58887L58.465 10.3496H56.9963L58.1816 7.58887H60.0111Z" fill="white"/>
<path id="Vector_17" d="M69.7767 3.60118C69.2356 3.37112 68.6945 3.24331 68.1277 3.24331C67.2516 3.24331 66.7878 3.52449 66.7878 3.98461C66.7878 4.49586 67.2774 4.54699 68.0504 4.90486C69.1068 5.41611 69.5964 5.85066 69.5964 6.82203C69.5964 8.33021 68.3853 9.40383 66.2209 9.40383C65.3706 9.40383 64.5718 9.27602 63.7988 9.0204L64.2111 7.53778C64.8037 7.81897 65.3706 7.97234 65.9117 7.97234C66.9424 7.97234 67.5093 7.61447 67.5093 7.07766C67.5093 6.46416 66.9166 6.33635 65.9375 5.92735C65.1129 5.59504 64.7264 5.03267 64.7264 4.24024C64.7264 2.88543 65.9117 1.91406 67.7669 1.91406C68.7976 1.91406 69.6221 2.01631 70.189 2.24637L69.7767 3.60118Z" fill="white"/>
<path id="Vector_18" d="M75.2393 5.39087C74.8528 5.21194 74.4663 5.10969 74.0798 5.10969C73.0749 5.10969 72.4307 5.72319 72.4307 6.64343C72.4307 7.43587 72.9718 7.94711 73.8221 7.94711C74.1571 7.94711 74.5178 7.87043 74.8786 7.69149L74.6467 9.09742C74.0798 9.2508 73.5902 9.32748 73.1006 9.32748C71.4516 9.32748 70.4467 8.33055 70.4467 6.84793C70.4467 5.05856 71.7608 3.75488 73.8479 3.75488C74.4663 3.75488 75.0589 3.85713 75.6516 4.11275L75.2393 5.39087Z" fill="white"/>
<path id="Vector_19" d="M78.6406 3.88248L77.4811 9.22502H75.6516L76.8111 3.88248H78.6406ZM79.0271 2.04199L78.8467 2.9878H77.0173L77.1976 2.04199H79.0271Z" fill="white"/>
<path id="Vector_20" d="M80.8565 7.02641C80.9338 7.81884 81.3718 8.17671 82.2479 8.17671C82.8148 8.17671 83.4589 8.0489 84.0773 7.76771L83.8712 9.0714C83.227 9.2759 82.5571 9.37814 81.8872 9.37814C80.1865 9.37814 79.2074 8.40677 79.2074 6.87303C79.2074 6.00391 79.5939 5.10923 80.1608 4.52129C80.7276 3.98448 81.5264 3.67773 82.5571 3.67773C84.0516 3.67773 84.8761 4.52129 84.8761 5.97835C84.8761 6.2851 84.8246 6.61741 84.7473 7.00084H80.8565V7.02641ZM83.3043 5.77385C83.3043 5.18591 82.9436 4.80248 82.3767 4.80248C81.8099 4.80248 81.3203 5.23704 81.1141 6.00391H83.3043C83.3043 5.92722 83.3043 5.85053 83.3043 5.77385Z" fill="white"/>
<path id="Vector_21" d="M91.0344 9.22523H89.1534L89.7203 6.56674C89.7718 6.36224 89.7718 6.18331 89.7718 6.02993C89.7718 5.51868 89.5141 5.2375 89.1018 5.2375C88.3546 5.2375 87.865 5.82543 87.6074 6.97574L87.1178 9.22523H85.2368L86.3963 3.85713H88.0712L87.865 4.80294C88.4577 4.11275 89.1534 3.75488 89.9006 3.75488C91.0086 3.75488 91.6528 4.41951 91.6528 5.62094C91.6528 5.95325 91.6012 6.43893 91.4466 7.10355L91.0344 9.22523Z" fill="white"/>
<path id="Vector_22" d="M97.2699 5.39087C96.8834 5.21194 96.4969 5.10969 96.1104 5.10969C95.1055 5.10969 94.4613 5.72319 94.4613 6.64343C94.4613 7.43587 95.0024 7.94711 95.8528 7.94711C96.1877 7.94711 96.5485 7.87043 96.9092 7.69149L96.6773 9.09742C96.1104 9.2508 95.6209 9.32748 95.1313 9.32748C93.4822 9.32748 92.4773 8.33055 92.4773 6.84793C92.4773 5.05856 93.7914 3.75488 95.8785 3.75488C96.4969 3.75488 97.0896 3.85713 97.6822 4.11275L97.2699 5.39087Z" fill="white"/>
<path id="Vector_23" d="M99.4344 7.02641C99.5117 7.81884 99.9497 8.17671 100.826 8.17671C101.393 8.17671 102.037 8.0489 102.655 7.76771L102.449 9.0714C101.805 9.2759 101.135 9.37814 100.465 9.37814C98.7644 9.37814 97.7853 8.40677 97.7853 6.87303C97.7853 6.00391 98.1718 5.10923 98.7387 4.52129C99.3055 3.98448 100.104 3.67773 101.135 3.67773C102.629 3.67773 103.454 4.52129 103.454 5.97835C103.454 6.2851 103.402 6.61741 103.325 7.00084H99.4344V7.02641ZM101.882 5.77385C101.882 5.18591 101.521 4.80248 100.955 4.80248C100.388 4.80248 99.8982 5.23704 99.692 6.00391H101.882C101.856 5.92722 101.882 5.85053 101.882 5.77385Z" fill="white"/>
<path id="Vector_24" d="M7.21476 17.3794C7.29206 18.1719 7.7301 18.5297 8.58041 18.5297C9.14728 18.5297 9.79145 18.4019 10.4099 18.1207L10.2037 19.4244C9.55955 19.6289 8.88961 19.7312 8.21967 19.7312C6.51906 19.7312 5.53992 18.7598 5.53992 17.2261C5.53992 16.3569 5.92642 15.4623 6.49329 14.8743C7.06016 14.3119 7.85894 14.0308 8.88961 14.0308C10.3841 14.0308 11.2086 14.8743 11.2086 16.3314C11.2086 16.6381 11.1571 16.9704 11.0798 17.3539H7.21476V17.3794ZM9.66262 16.1013C9.66262 15.5134 9.30188 15.1299 8.73501 15.1299C8.16814 15.1299 7.67857 15.5645 7.47243 16.3314H9.66262C9.63685 16.2803 9.66262 16.2036 9.66262 16.1013Z" fill="white"/>
<path id="Vector_25" d="M15.0736 14.2607H16.3878L16.1301 15.5388H14.816L14.4295 17.3793C14.3779 17.6094 14.3522 17.7628 14.3522 17.8395C14.3522 18.2229 14.5068 18.3763 14.9448 18.3763C15.0994 18.3763 15.3055 18.3507 15.5632 18.274L15.3055 19.5521C14.8675 19.6288 14.5325 19.6544 14.2749 19.6544C13.1669 19.6544 12.5227 19.0665 12.5227 18.044C12.5227 17.865 12.5485 17.6861 12.5743 17.5072L13.0123 15.4877H11.8528L12.1362 14.2096H13.2442L13.5019 12.957L15.4601 12.4458L15.0736 14.2607Z" fill="white"/>
<path id="Vector_26" d="M22.9583 12.3945L21.4123 19.5776H19.4797L21.0257 12.3945H22.9583Z" fill="white"/>
<path id="Vector_27" d="M28.6528 19.5778H26.7975L27.3644 16.9193C27.4159 16.7148 27.416 16.5359 27.416 16.3825C27.416 15.8712 27.1583 15.59 26.746 15.59C25.9988 15.59 25.5092 16.178 25.2515 17.3283L24.762 19.5778H22.881L24.0405 14.2097H25.7153L25.5092 15.1555C26.1018 14.4653 26.7975 14.1074 27.5448 14.1074C28.6528 14.1074 29.2969 14.772 29.2969 15.9735C29.2969 16.3058 29.2454 16.7915 29.0908 17.4561L28.6528 19.5778Z" fill="white"/>
<path id="Vector_28" d="M35.6614 19.5778H33.8062L34.3731 16.9193C34.4246 16.7148 34.4246 16.5359 34.4246 16.3825C34.4246 15.8712 34.1669 15.59 33.7547 15.59C33.0074 15.59 32.5179 16.178 32.2602 17.3283L31.7706 19.5778H29.8896L31.0492 14.2097H32.724L32.5179 15.1555C33.1105 14.4653 33.8062 14.1074 34.5535 14.1074C35.6614 14.1074 36.3056 14.772 36.3056 15.9735C36.3056 16.3058 36.2541 16.7915 36.0995 17.4561L35.6614 19.5778Z" fill="white"/>
<path id="Vector_29" d="M43.4172 16.6125C43.4172 18.4275 42.0773 19.7311 39.9387 19.7311C38.2123 19.7311 37.1816 18.7853 37.1816 17.3027C37.1816 15.4111 38.47 14.1074 40.6344 14.1074C42.3865 14.1074 43.4172 15.0532 43.4172 16.6125ZM40.5313 15.3344C39.7841 15.3344 39.0884 16.1524 39.0884 17.2772C39.0884 17.9929 39.5264 18.4786 40.1191 18.4786C40.8663 18.4786 41.5362 17.6606 41.5362 16.5358C41.5362 15.769 41.124 15.3344 40.5313 15.3344Z" fill="white"/>
<path id="Vector_30" d="M46.1743 14.2607L46.6123 18.0695L48.5191 14.2607H50.4774L47.3338 19.5777H45.2209L44.3191 14.2607H46.1743Z" fill="white"/>
<path id="Vector_31" d="M55.6307 18.2228C55.5534 18.6063 55.4504 19.0408 55.3988 19.5776H53.8528L53.9559 18.7596C53.5436 19.3731 52.8995 19.6799 52.1007 19.6799C50.9927 19.6799 50.297 19.0408 50.297 18.095C50.297 16.8936 51.405 16.1523 53.4663 16.1523C53.724 16.1523 54.0332 16.1778 54.3424 16.2034C54.3424 16.1523 54.3424 16.0756 54.3424 16.0245C54.3424 15.4876 53.9817 15.2065 53.3117 15.2065C52.6933 15.2065 52.1007 15.3343 51.5596 15.6155L51.7915 14.3629C52.3841 14.1584 52.951 14.0562 53.5694 14.0562C55.1927 14.0562 56.0688 14.7208 56.0688 15.7433C56.0688 15.9989 56.0172 16.3312 55.9657 16.6891L55.6307 18.2228ZM53.5952 17.1236C52.5902 17.1236 52.0749 17.4048 52.0749 17.9416C52.0749 18.2995 52.3583 18.5296 52.7706 18.5296C53.4148 18.5296 54.0074 18.0183 54.1363 17.1236C53.9301 17.1236 53.7498 17.1236 53.5952 17.1236Z" fill="white"/>
<path id="Vector_32" d="M60.0111 14.2607H61.3252L61.0676 15.5388H59.7535L59.3669 17.3793C59.3154 17.6094 59.2896 17.7628 59.2896 17.8395C59.2896 18.2229 59.4442 18.3763 59.8823 18.3763C60.0369 18.3763 60.243 18.3507 60.5007 18.274L60.243 19.5521C59.805 19.6288 59.47 19.6544 59.2123 19.6544C58.1044 19.6544 57.4602 19.0665 57.4602 18.044C57.4602 17.865 57.486 17.6861 57.5117 17.5072L57.9498 15.4877H56.8418L57.1252 14.2096H58.2332L58.4909 12.957L60.4492 12.4458L60.0111 14.2607Z" fill="white"/>
<path id="Vector_33" d="M64.3657 14.235L63.2062 19.5776H61.3767L62.5362 14.235H64.3657ZM64.7522 12.3945L64.5718 13.3403H62.7424L62.9227 12.3945H64.7522Z" fill="white"/>
<path id="Vector_34" d="M71.1423 16.6125C71.1423 18.4275 69.8024 19.7311 67.6638 19.7311C65.9374 19.7311 64.9067 18.7853 64.9067 17.3027C64.9067 15.4111 66.1951 14.1074 68.3595 14.1074C70.1116 14.1074 71.1423 15.0532 71.1423 16.6125ZM68.2564 15.3344C67.5092 15.3344 66.8135 16.1524 66.8135 17.2772C66.8135 17.9929 67.2515 18.4786 67.8442 18.4786C68.5914 18.4786 69.2613 17.6606 69.2613 16.5358C69.2613 15.769 68.8491 15.3344 68.2564 15.3344Z" fill="white"/>
<path id="Vector_35" d="M77.3522 19.5778H75.497L76.0639 16.9193C76.1154 16.7148 76.1154 16.5359 76.1154 16.3825C76.1154 15.8712 75.8577 15.59 75.4455 15.59C74.6982 15.59 74.2087 16.178 73.951 17.3283L73.4614 19.5778H71.5804L72.74 14.2097H74.4148L74.2087 15.1555C74.8013 14.4653 75.497 14.1074 76.2442 14.1074C77.3522 14.1074 77.9964 14.772 77.9964 15.9735C77.9964 16.3058 77.9449 16.7915 77.7903 17.4561L77.3522 19.5778Z" fill="white"/>
<path id="Vector_36" d="M132.468 27.4764C131.54 27.7832 131.514 26.9396 131.514 26.9396C132.339 27.093 132.416 26.3772 132.416 26.3772H130.741V25.6104H131.54C131.54 25.6104 131.411 24.5623 130.638 24.5623C129.917 24.5623 129.814 25.3547 129.968 25.6615C129.607 25.7126 129.092 25.0991 129.092 24.3834C129.092 23.4631 129.839 22.9774 130.483 22.9774C131.54 22.9774 132.313 24.1789 132.313 25.5848H132.622C132.622 25.5848 132.699 24.8946 132.545 24.2811C132.313 23.3097 131.823 22.7218 131.823 22.0572C131.798 20.9069 132.493 20.7279 133.06 19.7054C133.627 20.7024 134.323 20.9069 134.297 22.0572C134.297 22.7218 133.807 23.3097 133.575 24.2811C133.421 24.8946 133.498 25.5848 133.498 25.5848H133.807C133.807 24.1789 134.58 22.9774 135.637 22.9774C136.281 22.9774 137.028 23.4631 137.028 24.3834C137.028 25.0991 136.513 25.7126 136.152 25.6615C136.281 25.3292 136.178 24.5623 135.482 24.5623C134.709 24.5623 134.58 25.6104 134.58 25.6104H135.379V26.3772H133.704C133.704 26.3772 133.782 27.0674 134.632 26.9396C134.632 26.9396 134.632 27.7832 133.679 27.4764C133.679 27.4764 133.653 28.2177 133.086 28.4989C132.519 28.2177 132.468 27.4764 132.468 27.4764ZM140.558 19.5776H125.614V28.6523H140.558V19.5776Z" fill="white"/>
<path id="Vector_37" d="M151.767 27.4764C150.839 27.7832 150.814 26.9396 150.814 26.9396C151.638 27.093 151.715 26.3772 151.715 26.3772H150.041V25.6104H150.839C150.839 25.6104 150.711 24.5623 149.938 24.5623C149.216 24.5623 149.113 25.3547 149.268 25.6615C148.907 25.7126 148.392 25.0991 148.392 24.3834C148.392 23.4631 149.139 22.9774 149.783 22.9774C150.839 22.9774 151.612 24.1789 151.612 25.5848H151.922C151.922 25.5848 151.999 24.8946 151.844 24.2811C151.612 23.3097 151.123 22.7218 151.123 22.0572C151.097 20.9069 151.793 20.7279 152.36 19.7054C152.926 20.7024 153.622 20.9069 153.596 22.0572C153.596 22.7218 153.107 23.3097 152.875 24.2811C152.72 24.8946 152.798 25.5848 152.798 25.5848H153.107C153.107 24.1789 153.88 22.9774 154.936 22.9774C155.58 22.9774 156.328 23.4631 156.328 24.3834C156.328 25.0991 155.812 25.7126 155.452 25.6615C155.58 25.3292 155.477 24.5623 154.782 24.5623C154.009 24.5623 153.88 25.6104 153.88 25.6104H154.679V26.3772H153.004C153.004 26.3772 153.081 27.0674 153.931 26.9396C153.931 26.9396 153.931 27.7832 152.978 27.4764C152.978 27.4764 152.952 28.2177 152.385 28.4989C151.819 28.2177 151.767 27.4764 151.767 27.4764ZM159.832 19.5776H144.887V28.6523H159.832V19.5776Z" fill="white"/>
<path id="Vector_38" d="M132.468 40.8968C131.54 41.2036 131.514 40.36 131.514 40.36C132.339 40.5134 132.416 39.7976 132.416 39.7976H130.741V39.0308H131.54C131.54 39.0308 131.411 37.9827 130.638 37.9827C129.917 37.9827 129.814 38.7751 129.968 39.0819C129.607 39.133 129.092 38.5195 129.092 37.8038C129.092 36.8835 129.839 36.3978 130.483 36.3978C131.54 36.3978 132.313 37.5993 132.313 39.0052H132.622C132.622 39.0052 132.699 38.315 132.545 37.7015C132.313 36.7302 131.823 36.1422 131.823 35.4776C131.798 34.3273 132.493 34.1484 133.06 33.1259C133.627 34.1228 134.323 34.3273 134.297 35.4776C134.297 36.1422 133.807 36.7302 133.575 37.7015C133.421 38.315 133.498 39.0052 133.498 39.0052H133.807C133.807 37.5993 134.58 36.3978 135.637 36.3978C136.281 36.3978 137.028 36.8835 137.028 37.8038C137.028 38.5195 136.513 39.133 136.152 39.0819C136.281 38.7496 136.178 37.9827 135.482 37.9827C134.709 37.9827 134.58 39.0308 134.58 39.0308H135.379V39.7976H133.704C133.704 39.7976 133.782 40.4878 134.632 40.36C134.632 40.36 134.632 41.2036 133.679 40.8968C133.679 40.8968 133.653 41.6381 133.086 41.9193C132.519 41.6381 132.468 40.8968 132.468 40.8968ZM140.558 32.998H125.614V42.0727H140.558V32.998Z" fill="white"/>
<path id="Vector_39" d="M151.767 40.8968C150.839 41.2036 150.814 40.36 150.814 40.36C151.638 40.5134 151.715 39.7976 151.715 39.7976H150.041V39.0308H150.839C150.839 39.0308 150.711 37.9827 149.938 37.9827C149.216 37.9827 149.113 38.7751 149.268 39.0819C148.907 39.133 148.392 38.5195 148.392 37.8038C148.392 36.8835 149.139 36.3978 149.783 36.3978C150.839 36.3978 151.612 37.5993 151.612 39.0052H151.922C151.922 39.0052 151.999 38.315 151.844 37.7015C151.612 36.7302 151.123 36.1422 151.123 35.4776C151.097 34.3273 151.793 34.1484 152.36 33.1259C152.926 34.1228 153.622 34.3273 153.596 35.4776C153.596 36.1422 153.107 36.7302 152.875 37.7015C152.72 38.315 152.798 39.0052 152.798 39.0052H153.107C153.107 37.5993 153.88 36.3978 154.936 36.3978C155.58 36.3978 156.328 36.8835 156.328 37.8038C156.328 38.5195 155.812 39.133 155.452 39.0819C155.58 38.7496 155.477 37.9827 154.782 37.9827C154.009 37.9827 153.88 39.0308 153.88 39.0308H154.679V39.7976H153.004C153.004 39.7976 153.081 40.4878 153.931 40.36C153.931 40.36 153.931 41.2036 152.978 40.8968C152.978 40.8968 152.952 41.6381 152.385 41.9193C151.819 41.6381 151.767 40.8968 151.767 40.8968ZM159.832 32.998H144.887V42.0727H159.832V32.998Z" fill="white"/>
</g>
</g>
<defs>
<clipPath id="clip0_399_1692">
<rect width="168" height="46" fill="white"/>
</clipPath>
</defs>
</svg>
