<svg width="137" height="35" viewBox="0 0 137 35" fill="none" xmlns="http://www.w3.org/2000/svg">
<g id="mcgill-university-2 1">
<g id="Group">
<path id="Vector" fill-rule="evenodd" clip-rule="evenodd" d="M6.6619 17.5038C5.60573 13.8633 6.22408 10.505 6.22408 6.44021C9.97467 4.60237 13.6897 4.46094 17.731 4.46094C21.1909 4.46094 26.1427 4.88522 29.1292 6.44021C29.4206 10.258 29.6026 13.6508 28.5826 18.0337C27.5627 22.3813 24.6131 28.426 17.8767 32.8792C10.5212 28.1784 8.1175 22.5234 6.6619 17.5038Z" fill="white"/>
<path id="Vector_2" fill-rule="evenodd" clip-rule="evenodd" d="M10.1574 12.1668L6.55249 16.0191C7.3535 19.6948 9.61153 27.3655 17.8412 32.5617C25.9984 27.1179 28.1832 19.6603 28.6566 15.9135L25.1605 12.1668L21.2279 16.0191L17.6593 12.202L14.0544 15.9839L10.1574 12.1668ZM27.2365 8.31379C27.1996 8.31379 27.1271 8.27861 27.2365 8.24273C27.309 8.24273 27.491 8.24273 27.7099 8.4904C27.7831 8.45522 28.0013 8.13718 28.2195 8.24273C28.2195 8.24273 27.4917 9.79841 27.4185 9.90396C27.1271 9.76254 25.2699 9.65699 25.4519 9.65699C25.5976 9.65699 23.7766 9.69217 23.4852 9.90396C23.412 9.76254 22.6842 8.20755 22.6842 8.20755C22.9031 8.10131 23.1576 8.42003 23.2308 8.45453C23.4127 8.20755 23.5947 8.20755 23.6309 8.20755C23.8129 8.24273 23.7041 8.2786 23.6672 8.3131C22.7937 8.98504 24.0673 9.79772 24.3594 8.98504C25.5251 9.12647 25.1967 8.24273 24.906 8.10131C24.6871 8.06612 24.8328 8.03025 24.906 8.03025C25.0148 7.95919 25.1605 7.95919 25.1605 8.06543C25.1605 7.57079 25.1967 7.25206 25.4519 7.11133C25.7433 7.28794 25.7795 7.57079 25.7433 8.06543C25.7795 7.95919 25.889 8.03025 25.9984 8.03025C26.0347 8.06543 26.2166 8.06543 26.0347 8.13649C25.7433 8.24204 25.4526 9.19684 26.5812 8.98435C26.8357 9.79841 28.2195 8.91467 27.2365 8.31379ZM26.4718 9.23271L26.8357 9.62112L26.1804 9.51487L26.4718 9.23271ZM25.4519 8.80843L25.852 9.51487H25.051L25.4519 8.80843ZM24.4319 9.23271L24.1043 9.62112L24.7596 9.51487L24.4319 9.23271Z" fill="black"/>
<path id="Vector_3" fill-rule="evenodd" clip-rule="evenodd" d="M23.9585 10.7888C23.8491 10.5763 23.7041 10.1879 23.6309 10.1168C23.9223 9.86917 25.0872 9.83398 25.525 9.83398C26.144 9.83398 27.0183 9.94022 27.309 10.1168C27.309 10.1168 27.1633 10.5411 27.0538 10.824C26.5442 10.6474 25.8889 10.5763 25.4518 10.5763C24.9422 10.5763 24.3594 10.6474 23.9585 10.7888ZM26.8718 10.1879C26.9813 10.1879 27.0908 10.2934 27.0908 10.3645C27.0869 10.4196 27.0626 10.4716 27.0224 10.5106C26.9821 10.5497 26.9286 10.5733 26.8718 10.577C26.7986 10.577 26.6899 10.4707 26.6899 10.3645C26.6899 10.2934 26.7994 10.1879 26.8718 10.1879ZM26.1796 10.0458C26.289 10.0458 26.3985 10.1513 26.3985 10.2224C26.3985 10.3286 26.289 10.4342 26.1796 10.4342C26.1071 10.4342 25.9976 10.3286 25.9976 10.2224C25.9983 10.152 26.1071 10.0458 26.1796 10.0458ZM25.488 9.97541C25.5968 9.97541 25.7062 10.0817 25.7062 10.1879C25.7062 10.2934 25.5968 10.4004 25.488 10.4004C25.4312 10.3967 25.3777 10.3731 25.3375 10.334C25.2972 10.2949 25.2729 10.243 25.2691 10.1879C25.2698 10.0817 25.3793 9.97541 25.488 9.97541ZM24.7595 10.0458C24.869 10.0458 24.9784 10.1513 24.9784 10.2224C24.9784 10.3286 24.869 10.4342 24.7595 10.4342C24.6508 10.4342 24.5406 10.3286 24.5406 10.2224C24.5413 10.152 24.6508 10.0458 24.7595 10.0458ZM24.1042 10.1879C24.2137 10.1879 24.3231 10.2934 24.3231 10.3645C24.3231 10.4707 24.2137 10.577 24.1042 10.577C23.9948 10.577 23.886 10.4707 23.886 10.3645C23.886 10.2934 23.9948 10.1879 24.1042 10.1879Z" fill="black"/>
<path id="Vector_4" fill-rule="evenodd" clip-rule="evenodd" d="M25.4517 10.7173C26.2527 10.7173 27.0175 10.8587 27.0175 10.9643C27.0175 11.0353 26.3622 11.1057 25.5242 11.1057C24.6862 11.1057 23.9947 11.0347 23.9947 10.9643C23.9947 10.8587 24.6507 10.7173 25.4517 10.7173ZM15.1459 6.01646C15.1459 6.01646 15.6925 6.22825 16.1296 6.05164C16.7117 5.83916 17.222 5.69842 17.6229 5.87503V10.4703C17.2952 10.3289 16.8581 10.4 16.3485 10.5055C15.8389 10.6118 15.5475 10.6469 15.1466 10.5766V6.01646H15.1459ZM16.6754 9.40998C16.6754 9.23337 16.7842 9.1975 16.8574 9.1975C16.9306 9.1975 17.0393 9.23268 17.0393 9.40998C17.0393 9.58659 16.9306 9.62178 16.8574 9.62178C16.7842 9.62178 16.6754 9.5859 16.6754 9.40998ZM16.5667 9.40998C16.5667 9.69283 16.7849 9.72802 16.8581 9.72802C16.9313 9.72802 17.1495 9.69283 17.1495 9.40998C17.1495 9.12713 16.9306 9.09195 16.8581 9.09195C16.7856 9.09195 16.5667 9.12644 16.5667 9.40998ZM16.3115 9.55072L16.0571 9.12644H15.9114V9.72733H16.0571V9.30305L16.2753 9.72733H16.421V9.12644H16.3115V9.55072ZM15.6562 9.79838H15.765V9.16163H15.6562V9.79838ZM17.2582 7.74806H17.0763L16.9668 8.2427L16.8574 7.74806H16.6385V8.38413H16.7842V7.8543L16.8936 8.38482H17.0393L17.1488 7.8543V8.38482H17.2575L17.2582 7.74806ZM16.0926 8.10197C16.0926 7.96054 16.1658 7.89017 16.2383 7.89017C16.3115 7.89017 16.4203 7.96054 16.4203 8.10197C16.4203 8.27858 16.3108 8.34895 16.2383 8.34895C16.1658 8.34895 16.0926 8.27858 16.0926 8.10197ZM15.9476 8.10197C15.9476 8.42 16.1665 8.45519 16.239 8.45519C16.3485 8.45519 16.5667 8.42 16.5667 8.10197C16.5667 7.81912 16.3478 7.78393 16.239 7.78393C16.1658 7.78324 15.9476 7.81912 15.9476 8.10197ZM15.4736 7.99573H15.583C15.6562 7.99573 15.7287 7.99573 15.7287 8.17234C15.7287 8.27858 15.6918 8.38482 15.583 8.38482H15.4736V7.99573ZM15.3279 8.49037H15.6193C15.8382 8.49037 15.8744 8.27858 15.8744 8.17234C15.8744 8.06679 15.8382 7.89017 15.6193 7.89017H15.3279V8.49037ZM16.5297 7.00575L16.2746 6.58147H16.1289V7.18235H16.2746V6.75808L16.5297 7.18235H16.6385V6.58147H16.5297V7.00575ZM15.8382 7.21823H15.9476V6.61734H15.8382V7.21823ZM14.964 6.01646L14.5269 6.36967V10.9643L14.964 10.5407V6.01646Z" fill="black"/>
<path id="Vector_5" fill-rule="evenodd" clip-rule="evenodd" d="M14.6726 11.0357L15.1097 10.6825C15.4374 10.7887 16.1296 10.6473 16.4573 10.6114C16.9669 10.5052 17.222 10.4348 17.5859 10.6114C17.4915 10.6385 17.4087 10.6944 17.3496 10.7708C17.2906 10.8473 17.2586 10.9402 17.2583 11.0357H14.6726ZM20.6812 11.0357L20.2441 10.6825C19.8802 10.7887 19.2612 10.6473 18.8966 10.6114C18.3145 10.5052 18.1318 10.4348 17.8041 10.6114C17.9861 10.6825 18.0955 10.8584 18.0586 11.0357H20.6812ZM20.3536 5.98096L20.79 6.37005V10.8943L20.3536 10.5052V5.98096Z" fill="black"/>
<path id="Vector_6" fill-rule="evenodd" clip-rule="evenodd" d="M20.2079 6.01646C20.2079 6.01646 19.6614 6.22825 19.188 6.05164C18.6052 5.83916 18.1318 5.69842 17.8042 5.87503V10.4703C18.0956 10.3289 18.4595 10.4 19.0061 10.5055C19.5157 10.6118 19.8071 10.6469 20.2079 10.5766V6.01646ZM18.3145 9.72802H18.5689C18.7871 9.72802 18.8234 9.51553 18.8234 9.37411C18.8234 9.26856 18.7871 9.09125 18.5689 9.09125H18.3145V9.72802ZM18.4232 9.1975H18.5689C18.6052 9.1975 18.7146 9.23268 18.7146 9.40998C18.7146 9.51554 18.6777 9.62178 18.5689 9.62178H18.4232V9.1975ZM19.0061 9.48035C19.0061 9.79838 19.2243 9.83357 19.2975 9.83357C19.4069 9.83357 19.6251 9.79838 19.6251 9.48035C19.6251 9.1975 19.4062 9.16232 19.2975 9.16232C19.2243 9.16163 19.0061 9.1975 19.0061 9.48035ZM19.1518 9.48035C19.1518 9.33892 19.2243 9.26856 19.2975 9.26856C19.3707 9.26856 19.4794 9.33892 19.4794 9.48035C19.4794 9.65696 19.37 9.72802 19.2975 9.72802C19.225 9.72802 19.1518 9.65696 19.1518 9.48035ZM18.6422 8.2427H18.9336V8.13715H18.6422V7.99573H18.9698V7.89017H18.5327V8.49106H18.6422V8.2427ZM19.1155 8.52555H19.2612V7.88948H19.1155V8.52555ZM18.5327 6.79395C18.5327 6.72359 18.4595 6.58216 18.2775 6.58216C18.0956 6.58216 17.9861 6.6884 17.9861 6.9002C17.9861 7.11199 18.0956 7.21823 18.2775 7.21823C18.4232 7.21823 18.5327 7.14717 18.5327 7.00575H18.4232C18.387 7.07681 18.35 7.11199 18.2775 7.11199C18.1318 7.11199 18.1318 7.04093 18.1318 6.9002C18.1318 6.72359 18.2043 6.68771 18.2775 6.68771C18.387 6.68771 18.387 6.75877 18.4232 6.79327L18.5327 6.79395ZM18.6422 6.97056C18.6422 7.2886 18.8611 7.32378 18.9698 7.32378C19.043 7.32378 19.2612 7.2886 19.2612 6.97056C19.2612 6.68771 19.0423 6.65253 18.9698 6.65253C18.8611 6.65253 18.6422 6.68771 18.6422 6.97056ZM18.7879 6.97056C18.7879 6.82914 18.8973 6.75877 18.9698 6.75877C19.0061 6.75877 19.1155 6.82983 19.1155 6.97056C19.1155 7.14717 19.0061 7.21823 18.9698 7.21823C18.8966 7.21823 18.7879 7.14717 18.7879 6.97056ZM19.7346 7.11199L19.5157 6.68771H19.37V7.2886H19.4794V6.86432L19.7346 7.2886H19.8803V6.68771H19.7346V7.11199ZM17.6954 10.6821C17.5135 10.8587 17.4403 10.8587 17.4765 11.0353H17.8767C17.9136 10.8587 17.8774 10.7884 17.6954 10.6821Z" fill="black"/>
<path id="Vector_7" fill-rule="evenodd" clip-rule="evenodd" d="M9.6839 19.2001C9.72086 19.0938 9.86656 18.7054 9.93906 18.5992C9.86585 18.4929 9.72015 18.3522 9.64766 18.3522C9.6839 18.2459 9.9021 18.1045 9.86656 17.9983C9.79336 17.892 9.72086 17.892 9.50195 17.7865C9.57516 17.6451 9.72086 17.574 9.82961 17.5395C9.97531 17.5036 9.97531 17.3629 10.1573 17.2567C10.3762 17.1504 10.5944 17.1504 10.8488 17.1152C11.1765 17.1504 12.0869 17.3981 11.8325 18.4936C12.379 19.554 14.3087 18.1404 15.001 18.1404C14.8553 18.3529 14.7096 18.5999 14.5639 18.8475C14.7458 18.9524 15.001 18.8475 15.1829 18.8475C15.001 19.4484 14.6364 19.6602 14.3094 19.9079C14.6371 20.862 15.7657 20.5088 16.7856 20.4025C16.6769 20.7206 16.2391 20.7557 16.0578 21.0034C16.4537 21.3868 16.7854 21.8279 17.0408 22.3107C16.5675 22.0293 15.6207 21.7112 15.2931 21.605C14.711 21.3573 13.4359 21.3573 12.8531 21.605C12.9626 21.8168 13.1808 21.9582 13.3997 22.0644C13.072 22.6653 12.453 22.3107 12.0883 22.2059C11.7607 22.4177 11.1779 22.4522 11.0322 22.3107C11.0322 22.3107 11.0322 22.1341 11.2141 22.0293C11.3598 21.8526 10.8495 21.8161 10.7408 21.605C10.7408 21.3573 10.9597 21.605 11.1054 21.3573C10.7763 20.755 9.50195 20.6136 9.6839 19.2001ZM10.5574 17.5036C10.6306 17.5036 10.6669 17.5395 10.6669 17.6099C10.6669 17.6809 10.6306 17.7161 10.5574 17.7161C10.4849 17.7161 10.448 17.6809 10.448 17.6099C10.4487 17.5395 10.4849 17.5036 10.5574 17.5036ZM18.4602 19.3767C18.4964 19.2704 18.6059 18.882 18.6784 18.7758C18.6059 18.6702 18.4964 18.5295 18.387 18.5295C18.4602 18.4233 18.6421 18.2818 18.6059 18.1756C18.5696 18.0693 18.4964 18.0693 18.2782 17.9638C18.3514 17.8224 18.4971 17.7513 18.6059 17.7161C18.7516 17.7161 18.7516 17.5395 18.9335 17.4333C19.1524 17.3277 19.3706 17.3277 19.6258 17.3277C19.9534 17.3277 20.8639 17.5747 20.6087 18.6709C21.1553 19.732 23.085 18.2825 23.7772 18.2825L23.3401 19.0248C23.5221 19.1311 23.7772 19.0248 23.9592 19.0248C23.7772 19.6257 23.3771 19.8727 23.0857 20.0852C23.3771 21.0393 24.542 20.6861 25.5612 20.5798C25.4525 20.8979 25.0146 20.933 24.8334 21.1807C25.161 21.5339 25.5612 21.9934 25.8164 22.4887C25.343 22.2059 24.3956 21.8878 24.0686 21.7816C23.4865 21.5339 22.2115 21.5339 21.5924 21.7816C21.7381 21.9934 21.9563 22.1348 22.1752 22.2411C21.8476 22.8419 21.2285 22.4887 20.8639 22.3825C20.5362 22.5943 19.9534 22.6301 19.8077 22.4887C19.8077 22.4887 19.8077 22.3473 19.9897 22.2059C20.1354 22.0293 19.6258 21.9927 19.4801 21.7816C19.4801 21.5339 19.7352 21.7816 19.8809 21.5339C19.5526 20.9317 18.2775 20.7902 18.4602 19.3767ZM19.2974 17.6802C19.3706 17.6802 19.4431 17.7154 19.4431 17.7865C19.4431 17.8575 19.3699 17.892 19.2974 17.892C19.2612 17.892 19.1887 17.8569 19.1887 17.7865C19.1887 17.7161 19.2612 17.6802 19.2974 17.6802ZM14.2355 25.3862C14.3087 25.2448 14.4175 24.8902 14.4907 24.7853C14.4175 24.6791 14.3087 24.5377 14.1993 24.5377C14.2355 24.4314 14.4537 24.2548 14.4182 24.15C14.3819 24.0782 14.2725 24.0782 14.0905 23.972C14.163 23.8319 14.3087 23.7257 14.4182 23.7257C14.5276 23.6905 14.5276 23.5491 14.7096 23.4428C14.9278 23.3366 15.1829 23.3366 15.4011 23.3014C15.7288 23.3366 16.6755 23.5842 16.421 24.6798C16.9676 25.7401 18.8973 24.2907 19.5526 24.2907C19.4431 24.5384 19.2612 24.7867 19.1524 25.033C19.2981 25.1392 19.5526 25.033 19.7715 25.033C19.5526 25.5987 19.1887 25.8471 18.8973 26.0933C19.1887 27.0488 20.3536 26.6942 21.3735 26.5894C21.2278 26.9074 20.8276 26.9426 20.6087 27.1903C20.9726 27.5435 21.3735 28.0029 21.5917 28.4976C21.1546 28.1795 20.2079 27.8967 19.8802 27.7553C19.2612 27.5435 18.0231 27.5435 17.404 27.7553C17.5134 28.0029 17.7679 28.1444 17.9506 28.2513C17.6592 28.8522 17.0401 28.4976 16.6762 28.3562C16.3485 28.6038 15.7657 28.639 15.62 28.4976C15.62 28.4976 15.62 28.321 15.802 28.2147C15.9114 28.0381 15.4381 28.0029 15.2924 27.7553C15.2924 27.5435 15.5475 27.7553 15.657 27.5435C15.3649 26.9412 14.0905 26.7998 14.2355 25.3862ZM15.1097 23.6539C15.1822 23.6539 15.2185 23.7257 15.2185 23.7954C15.2185 23.8319 15.1822 23.9016 15.1097 23.9016C15.0728 23.9016 15.0003 23.8312 15.0003 23.7954C15.0003 23.725 15.0735 23.6539 15.1097 23.6539Z" fill="white"/>
<path id="Vector_8" fill-rule="evenodd" clip-rule="evenodd" d="M11.8326 8.31379C11.7963 8.31379 11.7231 8.27861 11.8326 8.24273C11.9058 8.24273 12.087 8.24273 12.3059 8.4904C12.3791 8.45522 12.5973 8.13718 12.8155 8.24273C12.8155 8.24273 12.087 9.79841 12.0145 9.90396C11.7231 9.76254 9.86667 9.65699 10.0479 9.65699C10.1936 9.65699 8.3734 9.69217 8.08128 9.90396C8.00807 9.76254 7.28027 8.20755 7.28027 8.20755C7.49847 8.10131 7.75363 8.42003 7.82612 8.45453C8.00807 8.20755 8.19074 8.20755 8.22698 8.20755C8.40893 8.24273 8.30019 8.2786 8.26323 8.3131C7.38973 8.98504 8.66409 9.79772 8.9555 8.98504C10.1211 9.12647 9.79346 8.24273 9.50206 8.10131C9.28315 8.06612 9.42885 8.03025 9.50206 8.03025C9.61151 7.95919 9.75721 7.95919 9.75721 8.06543C9.75721 7.57079 9.79346 7.25206 10.0486 7.11133C10.34 7.28794 10.3763 7.57079 10.34 8.06543C10.3763 7.95919 10.4857 8.03025 10.5945 8.03025C10.6307 8.06543 10.8134 8.06543 10.6307 8.13649C10.3393 8.24204 10.0479 9.19684 11.1773 8.98435C11.4317 9.79841 12.8155 8.91467 11.8326 8.31379ZM11.0678 9.23271L11.4317 9.62112L10.7764 9.51487L11.0678 9.23271ZM10.0479 8.80844L10.4481 9.51487H9.64705L10.0479 8.80844ZM9.0287 9.23271L8.70105 9.62112L9.35635 9.51487L9.0287 9.23271Z" fill="black"/>
<path id="Vector_9" fill-rule="evenodd" clip-rule="evenodd" d="M8.59168 10.7888C8.44598 10.5763 8.30028 10.1879 8.22778 10.1168C8.51919 9.86917 9.6841 9.83398 10.1212 9.83398C10.7403 9.83398 11.6145 9.94022 11.9059 10.1168C11.9059 10.1168 11.7602 10.5411 11.6507 10.824C11.1774 10.6474 10.4858 10.5763 10.0487 10.5763C9.53839 10.5763 8.95558 10.6474 8.59168 10.7888ZM11.4681 10.1879C11.5775 10.1879 11.687 10.2934 11.687 10.3645C11.6831 10.4196 11.6589 10.4716 11.6186 10.5106C11.5783 10.5497 11.5249 10.5733 11.4681 10.577C11.3956 10.577 11.2861 10.4707 11.2861 10.3645C11.2861 10.2934 11.3956 10.1879 11.4681 10.1879ZM10.7765 10.0458C10.886 10.0458 10.9947 10.1513 10.9947 10.2224C10.9909 10.2773 10.9667 10.3291 10.9265 10.368C10.8864 10.407 10.8331 10.4305 10.7765 10.4342C10.7033 10.4342 10.5946 10.3286 10.5946 10.2224C10.5946 10.152 10.704 10.0458 10.7765 10.0458ZM10.0842 9.97541C10.1937 9.97541 10.3024 10.0817 10.3024 10.1879C10.3024 10.2934 10.1937 10.4004 10.0842 10.4004C9.97479 10.4004 9.86605 10.2941 9.86605 10.1879C9.86605 10.0817 9.9755 9.97541 10.0842 9.97541ZM9.35644 10.0458C9.4659 10.0458 9.57535 10.1513 9.57535 10.2224C9.57535 10.3286 9.4659 10.4342 9.35644 10.4342C9.29983 10.4305 9.24653 10.407 9.20641 10.368C9.16629 10.3291 9.14207 10.2773 9.13825 10.2224C9.13753 10.152 9.24699 10.0458 9.35644 10.0458ZM8.70114 10.1879C8.81059 10.1879 8.92005 10.2934 8.92005 10.3645C8.92005 10.4707 8.81059 10.577 8.70114 10.577C8.59168 10.577 8.48223 10.4707 8.48223 10.3645C8.48223 10.2934 8.59168 10.1879 8.70114 10.1879Z" fill="black"/>
<path id="Vector_10" fill-rule="evenodd" clip-rule="evenodd" d="M10.0478 10.7173C10.8489 10.7173 11.6136 10.8587 11.6136 10.9643C11.6136 11.0353 10.9583 11.1057 10.1203 11.1057C9.28237 11.1057 8.59082 11.0346 8.59082 10.9643C8.59153 10.8587 9.24684 10.7173 10.0478 10.7173Z" fill="black"/>
<path id="Vector_11" fill-rule="evenodd" clip-rule="evenodd" d="M107.969 7.11213C108.442 7.11286 108.895 7.29553 109.23 7.62011C109.564 7.94469 109.752 8.38471 109.753 8.84374C109.753 9.79853 108.952 10.6112 107.969 10.6112C106.985 10.6112 106.184 9.79853 106.184 8.84374C106.185 8.38453 106.373 7.94441 106.708 7.61983C107.042 7.29525 107.496 7.11268 107.969 7.11213ZM124.902 25.5278C124.828 26.3053 124.465 26.8 123.008 27.1891C121.842 27.5423 121.988 28.1432 123.154 28.2128C126.322 27.7534 127.305 27.8251 130.145 28.1425C131.275 28.1073 131.092 27.4353 130.4 27.1173C128.725 26.4812 128.47 26.4812 128.143 24.8552L127.997 8.73749C127.997 7.81857 128.361 6.72304 127.34 6.97002C125.447 7.71233 125.301 7.74751 123.554 8.3484C122.643 8.70231 123.008 9.16108 123.663 9.37356C124.573 9.72747 124.646 10.2573 124.719 10.9292L124.902 25.5278ZM115.18 25.4568C115.07 26.1991 114.706 26.6937 113.248 27.118C112.084 27.4726 112.229 28.0721 113.394 28.1087C116.563 27.6844 117.546 27.7541 120.386 28.0369C121.515 28.0369 121.333 27.3312 120.642 27.0118C118.966 26.3757 118.711 26.3757 118.383 24.7855L118.237 8.63194C118.237 7.71302 118.602 6.61749 117.582 6.86446C115.688 7.60678 115.543 7.67783 113.795 8.24285C112.921 8.63194 113.248 9.05622 113.904 9.26801C114.814 9.62123 114.924 10.1869 114.959 10.823L115.18 25.4568ZM106.258 19.094C106.184 18.2813 106.076 17.6452 105.129 17.3624C104.436 17.2913 104.108 16.6904 105.091 16.3372C107.059 15.7012 107.35 15.5949 108.842 14.3931C109.315 14.1813 109.862 14.358 109.607 15.1706C109.497 15.8067 109.534 16.0896 109.461 16.7615L109.497 25.1732C109.571 26.5516 110.663 26.7648 111.354 27.0476C112.083 27.3305 112.119 28.108 111.318 28.1432C108.223 27.7189 107.568 27.6837 104.581 28.2494C103.598 28.2846 103.379 27.5423 104.617 27.1173C105.819 26.693 106.257 26.4812 106.292 25.4913L106.258 19.094ZM79.0553 17.5397C79.7483 10.3642 84.4818 7.39498 91.1451 6.86446C98.1736 6.90034 99.1935 7.35911 99.0841 11.1417C99.1203 12.5201 98.2099 12.8381 97.5546 11.2832C96.7898 9.90477 96.1707 9.09209 94.3868 8.38496C88.3049 7.04176 83.8258 10.8244 83.5714 17.2568C83.1343 26.306 93.5858 28.9558 95.7343 25.5637C96.2077 24.68 96.2077 22.3475 96.1338 20.4034C95.7699 19.1312 94.4955 19.2368 93.2936 19.2016C91.983 19.3079 91.5097 17.8584 93.2574 17.8584C94.9689 17.8584 98.2824 18.035 102.507 17.6459C103.745 17.6811 103.854 18.7766 102.325 18.9533C101.67 19.0947 100.248 19.0595 100.066 20.1198C99.9206 25.6334 101.233 26.1646 96.971 27.6844C91.5097 28.9213 85.6105 28.3556 82.297 25.2457C80.8031 23.937 78.9452 21.0036 79.0553 17.5397ZM64.962 21.2147C65.5811 15.2769 70.6799 13.8626 73.3004 13.8626C76.3957 13.9337 77.3787 14.923 77.4164 15.9481C77.4526 16.9381 76.7234 17.4679 75.9224 17.2561C74.2109 16.8319 74.5386 15.0644 72.245 14.9582C69.6948 15.3114 68.1291 18.104 68.5662 21.4624C69.0033 24.82 72.353 27.2939 76.4313 25.2443C77.4156 25.0311 77.4874 25.8452 76.6864 26.375C69.2229 30.8654 64.6713 24.5027 64.962 21.2147ZM41.8387 11.2121C41.6567 9.16177 41.0014 9.79853 39.3987 9.16177C38.0874 8.91479 37.9786 7.99587 39.2893 7.95999C41.5835 8.1366 42.7492 8.17179 44.6788 7.85375C45.5523 7.99518 45.9532 8.3484 46.2808 9.16177C47.8828 12.4842 50.2496 17.4686 51.8524 20.7904C52.1438 21.3913 52.2895 21.4975 52.6534 20.7552L57.4239 8.9141C57.9342 7.92412 58.5163 7.67715 60.1915 7.81857C63.0679 7.85376 63.7601 7.78269 65.1809 7.64196C66.3821 7.67714 66.3096 8.59607 65.1077 8.9141C63.2505 8.9141 62.3038 9.55017 62.0124 10.8934L62.2669 24.4668C62.5583 26.4812 63.6507 26.5509 65.5811 27.0111C66.4915 27.4002 66.2726 28.0017 65.5448 28.2128C61.4666 27.7534 60.082 27.7899 56.04 28.1425C54.8744 28.2487 54.8019 27.2939 56.04 27.0104C57.5333 26.6923 57.9342 26.446 58.2611 25.703L57.9335 12.5891C57.8965 12.0945 57.5689 12.0945 57.3507 12.6953L51.6697 26.4805C51.1601 27.6823 50.9049 27.6823 50.3221 26.7634L43.585 12.6243C43.403 12.1296 43.1479 12.2704 43.1116 12.5891L43.1841 25.067C43.3668 26.5157 44.386 26.5868 46.4983 27.2229C47.0811 27.4347 47.1174 27.8941 46.644 28.2121C42.5288 27.8941 41.8735 27.8941 38.0504 28.3536C37.4676 28.3536 37.1769 27.5057 38.1229 27.3643C40.1258 26.7986 40.6724 26.7986 41 25.6679L41.8387 11.2121Z" fill="white"/>
</g>
</g>
</svg>
