<svg width="116" height="60" viewBox="0 0 116 60" fill="none" xmlns="http://www.w3.org/2000/svg">
<g id="ontario-provincial-new-seeklogo 1" clip-path="url(#clip0_399_1654)">
<g id="g8">
<g id="g10">
<path id="path14" d="M10.1913 24.9951C10.2321 24.929 10.2577 24.8673 10.267 24.8115C10.2817 24.7069 10.2344 24.5807 10.1353 24.4579C9.89147 24.1511 9.39687 23.9234 9.05323 23.9565C8.50692 24.0092 8.00022 24.4806 7.91631 25.0148C7.83365 25.5493 8.2092 25.9533 8.75896 25.9088C9.21235 25.8741 9.95087 25.3818 10.1913 24.9951Z" fill="white"/>
<path id="path16" d="M15.6474 24.258C15.687 23.9412 15.3231 23.6546 14.5187 23.3636C12.1009 22.4888 10.6758 20.3103 10.2029 16.9923C10.2029 16.9923 10.2013 16.9758 10.1994 16.9603C10.1889 16.9507 10.1796 16.9423 10.1796 16.9423C10.0666 16.8372 9.91983 16.7322 9.77306 16.8588C9.45625 17.1273 9.6601 18.283 10.4184 21.5253C10.4184 21.5253 10.7142 22.8029 10.7142 22.804C10.8774 23.531 10.9134 24.1091 10.8331 24.6789C10.7515 25.2516 10.5442 25.8615 10.1598 26.657L9.45923 28.0893C7.58826 31.8957 6.9658 33.3022 7.22207 33.5609C7.3432 33.6822 7.54353 33.5273 7.70313 33.3789C7.70313 33.3789 7.71828 33.3658 7.73223 33.3531C7.7404 33.335 7.74696 33.3166 7.74696 33.3166C8.24991 32.0847 8.80391 30.986 9.40848 30.0166C10.7469 27.872 12.3614 26.3233 14.2666 25.382C14.9776 25.03 15.4033 24.7317 15.5698 24.4665C15.6143 24.3943 15.6404 24.3271 15.6474 24.258Z" fill="white"/>
<path id="path18" d="M32.3116 17.6432C32.3116 17.6432 32.3349 17.6463 32.3559 17.6475C32.3768 17.6374 32.3989 17.629 32.3989 17.629C32.5853 17.5467 32.7927 17.4423 32.8789 17.3042C32.908 17.2554 32.9255 17.2045 32.9208 17.148C32.8859 16.6816 31.1915 16.6257 26.6877 16.7013C26.6877 16.7013 25.0725 16.7235 25.0698 16.7242C24.195 16.7297 23.5834 16.6347 23.0844 16.4175C22.5926 16.2001 22.1681 15.8472 21.7068 15.2726C21.7068 15.2726 20.9019 14.2563 20.9019 14.2556C18.8886 11.6849 18.1401 10.8576 17.7634 11.0907C17.7172 11.1183 17.6858 11.153 17.6606 11.1934C17.5884 11.3097 17.5884 11.4675 17.5991 11.6026C17.5991 11.6026 17.6007 11.6207 17.6019 11.6364C17.6112 11.6471 17.6217 11.6572 17.6217 11.6572C19.8315 13.9134 20.6468 16.675 19.9107 19.7918C19.673 20.8054 19.6796 21.3403 19.9339 21.4711C20.1886 21.6036 20.7039 21.3307 21.5612 20.6096C24.2765 18.321 27.82 17.3023 32.3116 17.6432Z" fill="white"/>
<path id="path20" d="M25.0512 13.1144C24.5682 12.927 23.8666 13.278 23.4794 13.8988C23.1094 14.491 23.0547 15.6297 23.3925 15.7737C23.7326 15.9214 24.8497 15.2118 25.2259 14.6072C25.6215 13.9753 25.5397 13.3046 25.0512 13.1144Z" fill="white"/>
<path id="path22" d="M18.8472 34.5424C18.8472 34.5424 19.9713 33.1398 19.9725 33.1398C20.6026 32.3612 21.1419 31.8582 21.7232 31.5064C22.308 31.1558 22.9889 30.9277 23.9388 30.7642L25.6841 30.4751C30.5252 29.6927 32.3443 29.3061 32.4188 28.7712C32.4538 28.524 32.1644 28.4067 31.9082 28.3316C31.9082 28.3316 31.8853 28.3263 31.8632 28.3204C31.8388 28.3246 31.8154 28.3305 31.8154 28.3305C26.9918 29.5703 23.3603 29.0936 20.9125 27.0783C20.1623 26.4598 19.6796 26.2647 19.3854 26.4502C19.3248 26.491 19.2712 26.5464 19.2246 26.6207C19.0506 26.9 18.9807 27.4354 19.0072 28.2765C19.079 30.6071 18.3696 33 16.8895 35.3718C16.2228 36.4442 15.4016 37.5002 14.4359 38.537C14.4359 38.537 14.4208 38.555 14.408 38.57C14.4003 38.5897 14.3944 38.6113 14.3944 38.6113C14.3229 38.8564 14.2647 39.1523 14.4371 39.2585C14.8098 39.4879 15.9102 38.2307 18.8472 34.5424Z" fill="white"/>
<path id="path24" d="M21.835 34.3552C22.0004 34.722 22.2916 34.994 22.6371 35.0984C22.9143 35.1826 23.2048 35.1512 23.4541 35.0072C23.7034 34.8625 23.8956 34.6163 23.9953 34.3107C24.1209 33.9315 24.0932 33.5009 23.9184 33.1346C23.6079 32.4811 22.5094 31.8601 22.1076 32.1005C22.054 32.1333 22.0004 32.1903 21.9514 32.269C21.9049 32.3453 21.8622 32.4377 21.8245 32.55C21.6382 33.1023 21.6405 33.9289 21.835 34.3552Z" fill="white"/>
<path id="path26" d="M42.699 22.1429C42.741 22.1087 42.7638 22.0636 42.765 22.0175C42.7638 21.9712 42.7394 21.9293 42.6951 21.9035C42.3725 21.7034 35.303 17.3824 29.3518 18.9402C29.3029 18.9534 29.2609 18.9841 29.2365 19.0238C29.2249 19.0441 29.2155 19.0657 29.2139 19.0908C29.2078 19.1569 29.2563 19.2092 29.3285 19.2139C33.2633 19.4948 37.0987 21.6195 38.2321 22.2972L38.4213 22.4095L38.2303 22.5547C37.0817 23.4271 33.0898 26.2944 28.9802 27.3389C28.9033 27.3593 28.8463 27.4254 28.8463 27.4974C28.8439 27.5706 28.8987 27.6283 28.9756 27.6332C35.0933 28.1782 42.3818 22.3964 42.699 22.1429Z" fill="white"/>
<path id="path28" d="M17.8 13.8667C17.8501 13.829 17.8769 13.764 17.8594 13.712C16.6992 9.93402 11.7381 9.07176 11.5401 9.04012C11.5149 9.034 11.4846 9.04432 11.457 9.06521C11.4283 9.08562 11.4074 9.1163 11.398 9.14752C11.3239 9.39072 9.59716 15.2213 11.6065 18.2487C11.6337 18.2888 11.6904 18.2954 11.7381 18.2607C11.7882 18.2276 11.8162 18.1634 11.8069 18.1111C11.3239 15.3768 12.0899 12.0922 12.3322 11.1641L12.3718 11.0121L12.4953 11.0421C13.2471 11.2229 15.9281 11.9764 17.6521 13.8698C17.6866 13.9071 17.7476 13.9059 17.8 13.8667Z" fill="white"/>
<path id="path30" d="M15.2642 35.642C15.2956 35.5707 15.2816 35.4968 15.2339 35.4584C15.1861 35.4218 15.1169 35.4349 15.0673 35.4884C12.5431 38.3173 9.12192 39.9171 8.16165 40.3319L8.00599 40.3969L8.01416 40.2022C8.06194 39.0299 8.32865 35.0454 9.73043 31.6955C9.75631 31.6312 9.74397 31.5623 9.70085 31.5353C9.6582 31.5064 9.59648 31.5261 9.55365 31.5766C6.36428 35.605 6.1695 42.8894 6.16252 43.2124C6.16162 43.2543 6.17486 43.2916 6.19979 43.3163C6.22425 43.3397 6.25991 43.3456 6.29134 43.3343C6.54833 43.24 12.8611 40.8933 15.2642 35.642Z" fill="white"/>
<path id="path32" d="M57.8043 31.3386H59.7797V33.2027H59.8244C60.4363 31.8731 61.9166 31.0673 63.4601 31.0673C66.3293 31.0673 67.611 32.9555 67.611 36.1089V43.0879H65.5624V37.0022C65.5624 34.2648 64.9982 32.9349 63.2173 32.8186C60.8914 32.8186 59.85 34.7978 59.85 37.6506V43.0879H57.8043V31.3386Z" fill="white"/>
<path id="path34" d="M83.1335 37.4895C82.6964 37.4895 82.2681 37.4431 81.828 37.4431C80.7252 37.4431 77.9812 37.6274 77.9812 39.7004C77.9812 40.9461 79.1126 41.6168 80.0483 41.6168C82.0689 41.6168 83.1335 40.2785 83.1335 38.5263V37.4895ZM77.0735 32.1728C78.0903 31.5215 79.3118 31.0675 80.7252 31.0675C83.8957 31.0675 85.1738 32.7257 85.1738 35.9202V40.7841C85.1738 42.1229 85.2233 42.7418 85.2674 43.0881H83.3512V41.5657H83.3136C82.8281 42.2819 81.7457 43.3613 79.873 43.3613C77.4838 43.3613 75.8103 42.2568 75.8103 39.7004C75.8103 36.7499 78.8514 35.8301 80.9638 35.8301C81.7684 35.8301 82.3266 35.8301 83.1335 35.8829C83.1335 33.8532 82.4405 32.8188 80.3996 32.8188C79.2408 32.8188 78.0045 33.2749 77.1814 34.0146L77.0735 32.1728Z" fill="white"/>
<path id="path36" d="M93.2181 33.2327C92.927 33.1626 92.6318 33.1427 92.3742 33.1427C90.449 33.1427 89.1906 34.9852 89.1906 37.9365V43.0879H87.0364V31.4336H89.0552V33.3512H89.0969C89.6713 32.1282 90.9082 31.2535 92.1416 31.2535C92.6121 31.2535 92.9127 31.2882 93.2181 31.3447V33.2327Z" fill="white"/>
<path id="path38" d="M103.969 41.6168C106.356 41.6168 107.426 39.3156 107.426 37.2175C107.426 34.9824 106.141 32.8188 103.969 32.8188C101.771 32.8188 100.491 34.9824 100.491 37.2175C100.491 39.3156 101.552 41.6168 103.969 41.6168ZM103.969 31.0675C107.334 31.0675 109.599 33.6454 109.599 37.2175C109.599 40.5775 107.296 43.3613 103.969 43.3613C100.615 43.3613 98.3185 40.5775 98.3185 37.2175C98.3185 33.6454 100.573 31.0675 103.969 31.0675Z" fill="white"/>
<path id="path40" d="M74.9873 31.3388H71.9945V27.9308L69.8523 28.6218V31.3276L68.0875 33.1002H69.8523V39.9551C69.8523 42.3046 71.2222 43.3613 73.4432 43.3613C74.0778 43.3613 74.7046 43.2051 75.1781 43.0696V41.2505C74.8585 41.4426 74.4004 41.6168 73.8112 41.6168C72.8241 41.6168 71.9945 40.8777 71.9945 39.5168V33.0906H74.9873V31.3388Z" fill="white"/>
<path id="path42" d="M94.554 31.3386H96.7034V43.0879H94.554V31.3386Z" fill="white"/>
<path id="path44" d="M95.6251 29.7725C96.3515 29.7725 96.939 29.1824 96.939 28.4464C96.939 27.7121 96.3515 27.1221 95.6251 27.1221C94.8945 27.1221 94.3047 27.7121 94.3047 28.4464C94.3047 29.1824 94.8945 29.7725 95.6251 29.7725Z" fill="white"/>
<path id="path46" d="M48.8758 41.3382C52.3785 41.3382 53.8812 38.25 53.8812 35.0466C53.8812 31.7813 52.2282 28.7412 48.8758 28.7623C45.535 28.7412 43.8821 31.7813 43.8821 35.0466C43.8821 38.25 45.3859 41.3382 48.8758 41.3382ZM48.8758 26.7404C53.4909 26.7404 56.1887 30.2828 56.1887 35.0466C56.1887 39.9305 53.5107 43.3613 48.8758 43.3613C44.2479 43.3613 41.5757 39.9305 41.5757 35.0466C41.5757 30.2828 44.273 26.7404 48.8758 26.7404Z" fill="white"/>
</g>
</g>
</g>
<defs>
<clipPath id="clip0_399_1654">
<rect width="116" height="60" fill="white"/>
</clipPath>
</defs>
</svg>
